<svg id="Layer_1" data-name="Layer 1" xmlns="http://www.w3.org/2000/svg" viewBox="0 0 133.1 169.12"><defs><style>.cls-1{fill:#fff;}.cls-2{fill:#005b85;}</style></defs><path class="cls-1" d="M134.6,68.17a66.55,66.55,0,1,0-66.54,66.54A66.54,66.54,0,0,0,134.6,68.17" transform="translate(-1.51 -1.62)"/><path class="cls-2" d="M70.23,87.1,48.9,107.39v-77L68.44,51.55a1.33,1.33,0,0,0,2-1.8L48.55,26.05a1.32,1.32,0,0,0-1.45-.34A1.33,1.33,0,0,0,46.25,27v83.53a1.34,1.34,0,0,0,.8,1.22,1.39,1.39,0,0,0,.53.1,1.31,1.31,0,0,0,.91-.36L72.06,89a1.33,1.33,0,1,0-1.83-1.92" transform="translate(-1.51 -1.62)"/><path class="cls-2" d="M79.85,41.54a1.19,1.19,0,0,0-.85-.39,1.21,1.21,0,0,0-.89.32,1.22,1.22,0,0,0-.4.86,1.2,1.2,0,0,0,.33.88l24.75,26.87L79.17,92.55a1.23,1.23,0,0,0-.39.86,1.27,1.27,0,0,0,.34.88,1.24,1.24,0,0,0,.9.39,1.22,1.22,0,0,0,.85-.34l25.38-24.15Z" transform="translate(-1.51 -1.62)"/><path class="cls-2" d="M59.25,70a1.15,1.15,0,0,0,1.15,1.15H86.84l-2.67,2.67a1.14,1.14,0,0,0,0,1.62,1.12,1.12,0,0,0,.81.34,1.14,1.14,0,0,0,.82-.34L91.19,70l-6-6a1.15,1.15,0,0,0-1.63,1.63l3.18,3.18H60.4A1.14,1.14,0,0,0,59.25,70" transform="translate(-1.51 -1.62)"/><path class="cls-1" d="M29,168.09a2.33,2.33,0,0,1-2.63,2.65H18.8a2.33,2.33,0,0,1-2.63-2.65V150.55a2.33,2.33,0,0,1,2.63-2.65h7.52A2.33,2.33,0,0,1,29,150.55v8.22l-1.06,1.1H19.2v8.27h6.72V164h3Zm-3-17.58H19.2v6.87h6.72Z" transform="translate(-1.51 -1.62)"/><path class="cls-1" d="M46.27,168.09a2.34,2.34,0,0,1-2.65,2.65H35.78a2.33,2.33,0,0,1-2.63-2.65V150.55a2.33,2.33,0,0,1,2.63-2.65h7.84a2.34,2.34,0,0,1,2.65,2.65Zm-3.12-17.44H36.27V168h6.88Z" transform="translate(-1.51 -1.62)"/><path class="cls-1" d="M63.53,170.74H60.4V150.69l-6.87.19v19.86H50.4V147.9h3.13v.63c1.22-.15,2.44-.32,3.68-.49a30.51,30.51,0,0,1,3.71-.28,2.28,2.28,0,0,1,2.61,2.56Z" transform="translate(-1.51 -1.62)"/><path class="cls-1" d="M73.68,162.69,70,147.79H68.59v22.65h1.34V156c0-.13,0-.54-.21-1.79l.6-.12,3.71,14,3.72-14,.6.12c-.17,1.24-.21,1.65-.21,1.79v14.42h1.34V147.79H78.1l-3.71,14.9a5.36,5.36,0,0,0,0,.59l-.61,0c0-.49,0-.6,0-.61" transform="translate(-1.51 -1.62)"/><polygon class="cls-1" points="83.75 157.93 88.74 157.93 88.74 156.68 83.75 156.68 83.75 147.39 89.23 147.39 89.23 146.17 82.29 146.17 82.29 168.82 89.32 168.82 89.32 167.6 83.75 167.6 83.75 157.93"/><path class="cls-1" d="M99.68,147.79h-5v22.65h5a3.87,3.87,0,0,0,2.84-1.1,3.71,3.71,0,0,0,1.12-2.8V151.69a3.74,3.74,0,0,0-1.11-2.8,3.87,3.87,0,0,0-2.85-1.1m2.5,18.54a2.73,2.73,0,0,1-.85,2.12,3.07,3.07,0,0,1-2.16.77h-3V149h3.17a2.89,2.89,0,0,1,2.08.79,2.79,2.79,0,0,1,.81,2.07Z" transform="translate(-1.51 -1.62)"/><rect class="cls-1" x="106.48" y="146.17" width="1.46" height="22.64"/><path class="cls-1" d="M118.63,147.73h-1.52l-4,22.71h1.38l.82-5.17h5.14l.81,5.17h1.43Zm-3.2,16.32,2.41-14.81,2.39,14.81Z" transform="translate(-1.51 -1.62)"/></svg>