<?xml version="1.0" encoding="iso-8859-1"?>
<!-- Uploaded to: SVG Repo, www.svgrepo.com, Generator: SVG Repo Mixer Tools -->
<!DOCTYPE svg PUBLIC "-//W3C//DTD SVG 1.1//EN" "http://www.w3.org/Graphics/SVG/1.1/DTD/svg11.dtd">
<svg fill="#000000" version="1.1" id="Capa_1" xmlns="http://www.w3.org/2000/svg" xmlns:xlink="http://www.w3.org/1999/xlink" 
	 width="800px" height="800px" viewBox="0 0 48 47.999" xml:space="preserve">
<g>
	<path d="M13.479,28.018l6.831-1.735c-1.866-1.733-4.511-2.948-4.511-2.948S8.465,28.133,7,33.467c-0.4,0.133-0.801,0.133-1.2,0.266
		c0.533-6.533,3.467-12,7.6-13.732c0.399-0.133,0.533-0.533,0.533-0.933s-0.267-0.8-0.533-0.934c-4.133-1.6-7.066-7.067-7.6-13.733
		c2.399,0.667,5.866,1.067,9.999,1.067c4.134,0,7.601-0.4,10-1.067c-0.533,6.533-3.466,12-7.6,13.733
		c-0.4,0.133-0.533,0.533-0.533,0.934c0,0.4,0.267,0.8,0.533,0.933c2,0.8,3.6,2.4,4.934,4.533l1.6-0.667
		c-1.199-2.133-2.532-3.733-4.267-4.934c4-2.667,6.667-8.533,6.935-15.2c0.666-0.267,1.066-0.667,1.066-1.067
		C28.466,1.2,22.731,0,15.798,0C8.731,0,3.132,1.2,3.132,2.667c0,0.4,0.4,0.667,1.066,1.067c0.267,6.667,3.067,12.533,6.934,15.2
		c-4,2.667-6.667,8.534-6.934,15.2C3.533,34.4,3.132,34.8,3.132,35.2c0,1.333,4.479,2.397,10.346,2.532V28.018z M31.533,25.333
		l4.4,2.534C35.933,27.867,35.132,25.199,31.533,25.333z M31.23,30.312l-4.801-2.799C25.763,31.246,31.23,30.312,31.23,30.312z
		 M43.716,26.673c0,0-2.584,1.595-6.051,3.194v2.398c2-0.933,4.135-2,6-3.332L43.716,26.673z M43.437,31.713
		c0,0-2.569,1.487-6.037,3.087v2.4c2-0.935,4.134-2,6-3.2L43.437,31.713z M43.66,36.055c0,0-3.193,1.812-6.395,3.412v2.4
		c1.866-0.934,4.661-2.348,6.395-3.547V36.055z M30.466,25.066l6.266,3.867c1.201-0.533,4-2.135,5.201-2.935L35.4,22.133
		C35.4,22.133,33.132,23.733,30.466,25.066z M33.132,31.867c-2.934,1.199-6,2.266-8.8,2.666L16.065,30v2.133l8.267,4.801
		c0,0,3.866-0.934,8.667-2.801L33.132,31.867z M33,36.8c-2.934,1.2-6,2.267-8.801,2.667l-8.201-4.475v2.133l8.201,4.742
		c0,0,3.867-0.934,8.801-2.801V36.8z M32.867,41.467c-3.068,1.199-6.268,2.4-9.201,2.801l-7.668-4.217v2.133l7.668,4.482
		c0,0,4.135-1.066,9.201-2.934V41.467z M18.333,29.467l6.399,3.467c0,0,4.135-1.065,7.733-2.399l-6.399-3.733
		C24.333,27.6,18.333,29.467,18.333,29.467z M44.867,29.867L43.933,30.4l0.902,0.267V34.4l-0.533,0.496l0.533,0.399v3.866
		c0,0-10.637,6.97-21.703,8.837l-8.618-5.146v-3.865l0.618-0.59l-0.563-0.611v-4l0.695-0.188L14.6,32.934v-4
		c0,0,10.533-2,20.666-8.399L44.867,26V29.867z M15.933,16.934c0,0-1.467-1.2-3.333-3.067c4.8-1.067,8.666-3.333,10.8-6.267
		C21.266,12.8,15.933,16.934,15.933,16.934z"/>
</g>
</svg>