<svg xmlns="http://www.w3.org/2000/svg" width="480" height="480" fill="none"><path fill="url(#a)" d="M382 381.854H99V99h283L240.485 240.339 382 381.854Z"/><mask id="b" width="77" height="130" x="306" y="175" maskUnits="userSpaceOnUse" style="mask-type:alpha"><path fill="#34A853" d="M373.513 176.482a64.96 64.96 0 0 0-14.589 5.505 65.806 65.806 0 0 0-7.731 4.745 65.23 65.23 0 0 0-8.429 7.164 65.514 65.514 0 0 0-9.133 11.535c-.041-.025-.085-.048-.127-.073-2.263-1.311-4.523-2.626-6.787-3.937l-6.628-3.848c-1.586-.922-3.175-1.843-4.761-2.762a5.975 5.975 0 0 0-6.065.041 5.919 5.919 0 0 0-2.061 2.072 6.027 6.027 0 0 0-.817 2.543 6.116 6.116 0 0 0 .178 2.046 5.967 5.967 0 0 0 2.773 3.633c1.586.922 3.175 1.843 4.761 2.762l6.628 3.848c2.264 1.311 4.524 2.626 6.787 3.937.247.142.494.288.744.431-.079.199-.158.396-.234.595a65.256 65.256 0 0 0-4.258 23.948 65.284 65.284 0 0 0 3.612 20.831c.263.757.541 1.504.832 2.245-.231.133-.462.27-.693.403-2.263 1.311-4.523 2.625-6.787 3.936l-6.628 3.849-4.761 2.762a5.971 5.971 0 0 0-2.95 5.678 5.93 5.93 0 0 0 .816 2.544 5.958 5.958 0 0 0 3.596 2.717 5.975 5.975 0 0 0 3.365-.085c.399-.13.788-.301 1.165-.52l4.761-2.762 6.629-3.848c2.263-1.311 4.523-2.625 6.787-3.937.019-.009.038-.022.057-.031a65.686 65.686 0 0 0 9.205 11.646 65.796 65.796 0 0 0 8.43 7.164 65.076 65.076 0 0 0 22.32 10.249A65.343 65.343 0 0 0 382 305V175c-2.85.311-5.694.798-8.487 1.482Z"/></mask><g mask="url(#b)"><path fill="#4FAF53" d="M303.968 313.051V174.283H382v138.768z"/><g filter="url(#c)" opacity=".8"><path fill="url(#d)" fill-opacity=".3" d="M329.01 235.239c9.696-13.754 10.76 24.956 31.95 39.91 21.19 14.954 57.993 2.967 48.297 16.721-11.639 8.492-35.25 9.785-56.44-5.169-21.19-14.954-28.152-39.796-23.807-51.462Z"/></g><g filter="url(#e)" opacity=".7"><path fill="url(#f)" fill-opacity=".4" d="M329.01 244.679c9.696 13.754 10.76-24.957 31.95-39.911 21.19-14.954 57.993-2.967 48.297-16.721-11.639-8.491-35.25-9.784-56.44 5.17-21.19 14.954-28.152 39.796-23.807 51.462Z"/></g><g filter="url(#g)" opacity=".6"><path fill="#8BD8A0" d="M363.684 306.751c16.611 5.283 30.573 8.003 31.185 6.076.613-1.927-12.357-7.773-28.967-13.056-16.611-5.283-34.723-27.075-35.335-25.148-.612 1.927 16.506 26.844 33.117 32.128Z"/></g><g filter="url(#h)" opacity=".5"><path fill="#8BD8A0" d="M363.684 174.007c16.611-5.283 30.573-8.003 31.185-6.076.613 1.927-12.357 7.773-28.967 13.056-16.611 5.283-34.723 27.075-35.335 25.148-.612-1.927 16.506-26.844 33.117-32.128Z"/></g><g filter="url(#i)" opacity=".7"><path fill="#0D652D" d="M319.382 280.276c8.588-5.231 12.682-7.522 13.144-6.762.462.759-2.881 4.282-11.47 9.514-6.942 7.904-16.345-.457-16.807-1.217-.462-.759 3.754 6.241 15.133-1.535Z"/></g><g filter="url(#j)" opacity=".1"><ellipse cx="1.352" cy="15.55" fill="#202124" rx="1.352" ry="15.55" transform="rotate(-123.161 233.273 62.97) skewX(.029)"/></g><g filter="url(#k)" opacity=".3"><path fill="#fff" d="M315.011 273.752c8.985-5.473 13.101-8.143 12.731-8.751-.37-.608-5.085 1.077-14.07 6.55-11.999 5.276-4.843 14.794-3.531 13.854 3.518-1.829-7.725-4.655 4.87-11.653Z"/></g><ellipse cx="6.427" cy="7.566" fill="url(#l)" fill-opacity=".9" opacity=".15" rx="6.427" ry="7.566" transform="rotate(-16.151 1133.892 -923.088) skewX(-.017)"/><ellipse cx="6.427" cy="7.566" fill="url(#m)" fill-opacity=".9" opacity=".15" rx="6.427" ry="7.566" transform="rotate(-16.151 840.891 -961.109) skewX(-.017)"/><g filter="url(#n)" opacity=".1"><ellipse cx="1.352" cy="15.55" fill="#202124" rx="1.352" ry="15.55" transform="matrix(-.5334 .84587 .8456 .53381 308.325 188.087)"/></g><mask id="o" width="15" height="24" x="320" y="195" maskUnits="userSpaceOnUse" style="mask-type:alpha"><path fill="#000" d="M334.016 204.827c-1.919 3.079-5.214 10.111-6.622 13.241L320.077 216l8.129-20.217c2.736 1.731 7.729 5.965 5.81 9.044Z"/></mask><g mask="url(#o)"><g filter="url(#p)" opacity=".3" style="mix-blend-mode:multiply"><path fill="#0D652D" d="M332.908 202.779c-2.327 5.508-3.656 10.208-2.969 10.499.688.291 2.622-3.886 4.949-9.394 2.327-5.507 4.167-10.259 3.479-10.55-.688-.291-3.132 3.938-5.459 9.445Z"/></g><g filter="url(#q)" opacity=".3" style="mix-blend-mode:screen"><path fill="#81C995" d="M328.518 214.052c-.754 1.534-1.122 2.897-.822 3.044.299.148.941-1.002 1.695-2.537.753-1.534 1.333-2.872 1.033-3.019-.299-.147-1.153.977-1.906 2.512Z"/></g></g><mask id="r" width="16" height="24" x="320" y="262" maskUnits="userSpaceOnUse" style="mask-type:alpha"><path fill="#000" d="M334.618 275.883c-1.982-3.039-5.421-10.001-6.893-13.102L320.452 265l8.544 20.045c2.7-1.788 7.604-6.123 5.622-9.162Z"/></mask><g mask="url(#r)"><g filter="url(#s)" opacity=".3" style="mix-blend-mode:multiply"><path fill="#0D652D" d="M333.555 277.952c-2.441-5.458-3.866-10.13-3.185-10.435.682-.305 2.701 3.831 5.141 9.289 2.44 5.459 4.377 10.172 3.696 10.477-.682.305-3.212-3.873-5.652-9.331Z"/></g><g filter="url(#t)" opacity=".3" style="mix-blend-mode:screen"><path fill="#81C995" d="M328.932 266.775c-.785-1.518-1.181-2.873-.885-3.027.296-.153.962.983 1.747 2.502.785 1.518 1.392 2.844 1.095 2.997-.296.154-1.173-.953-1.957-2.472Z"/></g></g><g filter="url(#u)" opacity=".7"><path fill="#0D652D" d="M319.747 199.416c8.708 5.03 12.854 7.225 13.298 6.454.445-.77-2.98-4.213-11.688-9.244-7.124-7.74-16.33.838-16.774 1.608-.445.77 3.608-6.326 15.164 1.182Z"/></g><g filter="url(#v)" opacity=".3"><path fill="#fff" d="M315.495 206.314c8.862 5.12 12.92 7.632 12.546 8.279-.373.647-5.036-.817-13.898-5.936-15.396-5.835-13.361-17.4-4.946-15.503 3.459 1.496-6.132 6.679 6.298 13.16Z"/></g></g><ellipse cx="3.936" cy="2.161" fill="url(#w)" fill-opacity=".7" rx="3.936" ry="2.161" transform="rotate(-48.311 475.152 -255.387) skewX(-.031)"/><ellipse cx="3.935" cy="2.16" fill="url(#x)" fill-opacity=".7" rx="3.935" ry="2.16" transform="matrix(.66508 .74677 .7464 -.66549 349.935 210.85)"/><g filter="url(#y)" opacity=".09" style="mix-blend-mode:multiply"><path fill="#011B04" d="M362.652 265.492c-4.849-1.957-7.861.102-8.761 1.376-4.533 3.67-1.018 8.613.917 10.091 1.936 1.478 5.348 3.618 10.034 1.529 4.686-2.09 3.871-10.549-2.19-12.996Z"/></g><g filter="url(#z)" opacity=".09" style="mix-blend-mode:multiply"><path fill="#011B04" d="M362.721 214.646c-4.823 1.958-7.819-.102-8.714-1.376-4.509-3.671-1.013-8.615.912-10.093 1.925-1.479 5.32-3.62 9.981-1.53s3.85 10.552-2.179 12.999Z"/></g><path fill="#202124" d="M366.055 203.544c-2.028-3.049-6.65-3.539-10.323-1.093-3.673 2.445-5.006 6.9-2.978 9.949 2.028 3.05 6.65 3.54 10.323 1.094 3.673-2.445 5.007-6.9 2.978-9.95Z"/><g filter="url(#A)"><path fill="#000" d="M362.906 266.644c-3.673-2.445-8.257-2.013-10.239.967-1.981 2.98-.61 7.378 3.063 9.823 3.673 2.446 8.258 2.013 10.239-.967 1.982-2.979.61-7.377-3.063-9.823Z"/></g><g filter="url(#B)"><path fill="#000" d="M362.981 213.496c-3.672 2.444-8.254 2.011-10.235-.967-1.98-2.978-.61-7.374 3.062-9.819 3.672-2.445 8.254-2.012 10.235.967 1.981 2.978.61 7.374-3.062 9.819Z"/></g><mask id="C" width="16" height="15" x="351" y="265" maskUnits="userSpaceOnUse" style="mask-type:alpha"><path fill="#202124" d="M362.902 266.646c-3.673-2.445-8.257-2.012-10.239.967-1.981 2.98-.61 7.378 3.064 9.823 3.673 2.446 8.257 2.013 10.238-.966 1.982-2.98.611-7.378-3.063-9.824Z"/></mask><g mask="url(#C)"><g filter="url(#D)"><path fill="#D8D8D8" fill-opacity=".29" d="M355.274 276.556c2.867 2.339 6.208 2.601 7.631 2.314-2.775.592-5.496.377-8.218-1.883-1.501-1.248-2.335-3.146-2.737-4.533a5.25 5.25 0 0 1-.158-.609 6.685 6.685 0 0 1-.144-.847c.053.239.08.518.144.847.043.187.095.392.158.609.319.969 1.098 2.285 3.324 4.102Z"/></g><g filter="url(#E)" opacity=".8"><path fill="url(#F)" d="M355.977 266.004c-4.055.972-4.476 4.278-4.18 5.81-.575-1.321.156-3.697 1.306-4.701.919-.803 2.299-1.074 2.874-1.109Z"/></g></g><mask id="G" width="16" height="15" x="351" y="201" maskUnits="userSpaceOnUse" style="mask-type:alpha"><path fill="#202124" d="M362.98 213.494c-3.672 2.445-8.254 2.012-10.235-.966-1.981-2.979-.61-7.375 3.062-9.819 3.672-2.445 8.254-2.012 10.235.966 1.981 2.979.61 7.375-3.062 9.819Z"/></mask><g mask="url(#G)"><path fill="url(#H)" d="M352.533 209.659c.218 3.482 2.932 4.621 4.261 4.755-.822-.352-2.568-1.606-2.97-3.804-.402-2.198 2.119-5.11 3.43-6.291l-1.223-1.097c-1.257.695-3.715 2.955-3.498 6.437Z"/><g filter="url(#I)"><path fill="#D8D8D8" fill-opacity=".29" d="M355.354 203.591c2.865-2.338 6.204-2.601 7.627-2.314-2.774-.592-5.494-.377-8.214 1.883-1.501 1.247-2.335 3.144-2.736 4.531-.073.22-.122.422-.158.609-.08.351-.126.643-.144.846.053-.239.079-.517.144-.846.043-.188.095-.392.158-.609.319-.969 1.097-2.284 3.323-4.1Z"/></g></g><g filter="url(#J)" opacity=".8"><path fill="#E2DCE1" d="M354.178 273.461c.272 1.36 1.7 2.381 2.38 2.721l1.02-.681c-.227-.113-.816-.476-1.36-1.02-.544-.544-1.133-1.361-1.36-1.701l-.68.681Z"/></g><g filter="url(#K)" opacity=".8"><path fill="#E2DCE1" d="M354.248 206.626c.26-1.345 1.629-2.354 2.281-2.691l.978.673a5.747 5.747 0 0 0-1.304 1.009c-.521.538-1.086 1.345-1.303 1.682l-.652-.673Z"/></g><g fill="#E2DCE1" filter="url(#L)" opacity=".8"><path d="M361.531 267.882c.367.653.832 1.665 1.019 2.09l1.172.407c-.326-1.019-.917-1.783-1.172-2.038l-1.019-.459ZM356.387 265.844c-.326.081-.815.306-1.018.407h.458c.367-.203 1.002-.356 1.273-.407a1.404 1.404 0 0 0-.713 0Z"/></g><g fill="#E2DCE1" filter="url(#M)" opacity=".8"><path d="M361.633 212.348c.367-.653.832-1.667 1.019-2.092l1.171-.409c-.326 1.021-.917 1.786-1.171 2.042l-1.019.459ZM356.489 214.389c-.326-.082-.815-.306-1.019-.408h.458c.367.204 1.002.357 1.274.408a1.404 1.404 0 0 1-.713 0Z"/></g><g filter="url(#N)" opacity=".3"><path fill="url(#O)" fill-opacity=".4" d="M356.58 190.889c16.821 0-14.182 23.182-14.182 49.127 0 25.945 31.003 49.127 14.182 49.127-13.644-4.623-28.309-23.182-28.309-49.127 0-25.945 16.276-45.956 28.309-49.127Z"/></g><g filter="url(#P)" opacity=".2"><path fill="url(#Q)" fill-opacity=".4" d="M356.58 190.889c16.821 0-14.182 23.182-14.182 49.127 0 25.945 31.003 49.127 14.182 49.127-13.644-4.623-28.309-23.182-28.309-49.127 0-25.945 16.276-45.956 28.309-49.127Z"/></g><defs><filter id="c" width="91.228" height="73.96" x="323.701" y="228.255" color-interpolation-filters="sRGB" filterUnits="userSpaceOnUse"><feFlood flood-opacity="0" result="BackgroundImageFix"/><feBlend in="SourceGraphic" in2="BackgroundImageFix" result="shape"/><feGaussianBlur result="effect1_foregroundBlur_420_8189" stdDeviation="2.038"/></filter><filter id="e" width="95.305" height="78.037" x="321.663" y="175.664" color-interpolation-filters="sRGB" filterUnits="userSpaceOnUse"><feFlood flood-opacity="0" result="BackgroundImageFix"/><feBlend in="SourceGraphic" in2="BackgroundImageFix" result="shape"/><feGaussianBlur result="effect1_foregroundBlur_420_8189" stdDeviation="3.058"/></filter><filter id="g" width="70.454" height="45.059" x="327.493" y="271.445" color-interpolation-filters="sRGB" filterUnits="userSpaceOnUse"><feFlood flood-opacity="0" result="BackgroundImageFix"/><feBlend in="SourceGraphic" in2="BackgroundImageFix" result="shape"/><feGaussianBlur result="effect1_foregroundBlur_420_8189" stdDeviation="1.529"/></filter><filter id="h" width="70.454" height="45.059" x="327.493" y="164.254" color-interpolation-filters="sRGB" filterUnits="userSpaceOnUse"><feFlood flood-opacity="0" result="BackgroundImageFix"/><feBlend in="SourceGraphic" in2="BackgroundImageFix" result="shape"/><feGaussianBlur result="effect1_foregroundBlur_420_8189" stdDeviation="1.529"/></filter><filter id="i" width="36.507" height="21.184" x="300.138" y="269.295" color-interpolation-filters="sRGB" filterUnits="userSpaceOnUse"><feFlood flood-opacity="0" result="BackgroundImageFix"/><feBlend in="SourceGraphic" in2="BackgroundImageFix" result="shape"/><feGaussianBlur result="effect1_foregroundBlur_420_8189" stdDeviation="2.038"/></filter><filter id="j" width="28.108" height="19.215" x="306.379" y="273.442" color-interpolation-filters="sRGB" filterUnits="userSpaceOnUse"><feFlood flood-opacity="0" result="BackgroundImageFix"/><feBlend in="SourceGraphic" in2="BackgroundImageFix" result="shape"/><feGaussianBlur result="effect1_foregroundBlur_420_8189" stdDeviation=".51"/></filter><filter id="k" width="27.052" height="26.702" x="303.771" y="261.826" color-interpolation-filters="sRGB" filterUnits="userSpaceOnUse"><feFlood flood-opacity="0" result="BackgroundImageFix"/><feBlend in="SourceGraphic" in2="BackgroundImageFix" result="shape"/><feGaussianBlur result="effect1_foregroundBlur_420_8189" stdDeviation="1.529"/></filter><filter id="n" width="28.377" height="18.799" x="306.564" y="188.132" color-interpolation-filters="sRGB" filterUnits="userSpaceOnUse"><feFlood flood-opacity="0" result="BackgroundImageFix"/><feBlend in="SourceGraphic" in2="BackgroundImageFix" result="shape"/><feGaussianBlur result="effect1_foregroundBlur_420_8189" stdDeviation=".51"/></filter><filter id="p" width="12.832" height="24.05" x="327.72" y="191.281" color-interpolation-filters="sRGB" filterUnits="userSpaceOnUse"><feFlood flood-opacity="0" result="BackgroundImageFix"/><feBlend in="SourceGraphic" in2="BackgroundImageFix" result="shape"/><feGaussianBlur result="effect1_foregroundBlur_420_8189" stdDeviation="1.019"/></filter><filter id="q" width="5.359" height="8.028" x="326.368" y="210.304" color-interpolation-filters="sRGB" filterUnits="userSpaceOnUse"><feFlood flood-opacity="0" result="BackgroundImageFix"/><feBlend in="SourceGraphic" in2="BackgroundImageFix" result="shape"/><feGaussianBlur result="effect1_foregroundBlur_420_8189" stdDeviation=".612"/></filter><filter id="s" width="13.222" height="23.875" x="328.161" y="265.462" color-interpolation-filters="sRGB" filterUnits="userSpaceOnUse"><feFlood flood-opacity="0" result="BackgroundImageFix"/><feBlend in="SourceGraphic" in2="BackgroundImageFix" result="shape"/><feGaussianBlur result="effect1_foregroundBlur_420_8189" stdDeviation="1.019"/></filter><filter id="t" width="5.463" height="7.973" x="326.726" y="262.511" color-interpolation-filters="sRGB" filterUnits="userSpaceOnUse"><feFlood flood-opacity="0" result="BackgroundImageFix"/><feBlend in="SourceGraphic" in2="BackgroundImageFix" result="shape"/><feGaussianBlur result="effect1_foregroundBlur_420_8189" stdDeviation=".612"/></filter><filter id="u" width="36.687" height="20.761" x="300.473" y="189.337" color-interpolation-filters="sRGB" filterUnits="userSpaceOnUse"><feFlood flood-opacity="0" result="BackgroundImageFix"/><feBlend in="SourceGraphic" in2="BackgroundImageFix" result="shape"/><feGaussianBlur result="effect1_foregroundBlur_420_8189" stdDeviation="2.038"/></filter><filter id="v" width="31.473" height="27.905" x="299.65" y="189.889" color-interpolation-filters="sRGB" filterUnits="userSpaceOnUse"><feFlood flood-opacity="0" result="BackgroundImageFix"/><feBlend in="SourceGraphic" in2="BackgroundImageFix" result="shape"/><feGaussianBlur result="effect1_foregroundBlur_420_8189" stdDeviation="1.529"/></filter><filter id="y" width="17.404" height="15.896" x="351.064" y="264.074" color-interpolation-filters="sRGB" filterUnits="userSpaceOnUse"><feFlood flood-opacity="0" result="BackgroundImageFix"/><feBlend in="SourceGraphic" in2="BackgroundImageFix" result="shape"/><feGaussianBlur result="effect1_foregroundBlur_420_8189" stdDeviation=".306"/></filter><filter id="z" width="17.318" height="15.9" x="351.191" y="200.165" color-interpolation-filters="sRGB" filterUnits="userSpaceOnUse"><feFlood flood-opacity="0" result="BackgroundImageFix"/><feBlend in="SourceGraphic" in2="BackgroundImageFix" result="shape"/><feGaussianBlur result="effect1_foregroundBlur_420_8189" stdDeviation=".306"/></filter><filter id="A" width="15.525" height="14.367" x="351.454" y="265.059" color-interpolation-filters="sRGB" filterUnits="userSpaceOnUse"><feFlood flood-opacity="0" result="BackgroundImageFix"/><feColorMatrix in="SourceAlpha" result="hardAlpha" values="0 0 0 0 0 0 0 0 0 0 0 0 0 0 0 0 0 0 127 0"/><feOffset dx="-.102" dy=".204"/><feGaussianBlur stdDeviation=".102"/><feComposite in2="hardAlpha" operator="out"/><feColorMatrix values="0 0 0 0 0.0156863 0 0 0 0 0.231373 0 0 0 0 0.0666667 0 0 0 0.7 0"/><feBlend in2="BackgroundImageFix" result="effect1_dropShadow_420_8189"/><feBlend in="SourceGraphic" in2="effect1_dropShadow_420_8189" result="shape"/></filter><filter id="B" width="15.518" height="14.361" x="351.533" y="201.126" color-interpolation-filters="sRGB" filterUnits="userSpaceOnUse"><feFlood flood-opacity="0" result="BackgroundImageFix"/><feColorMatrix in="SourceAlpha" result="hardAlpha" values="0 0 0 0 0 0 0 0 0 0 0 0 0 0 0 0 0 0 127 0"/><feOffset dx="-.102" dy=".204"/><feGaussianBlur stdDeviation=".102"/><feComposite in2="hardAlpha" operator="out"/><feColorMatrix values="0 0 0 0 0.0156863 0 0 0 0 0.231373 0 0 0 0 0.0666667 0 0 0 0.7 0"/><feBlend in2="BackgroundImageFix" result="effect1_dropShadow_420_8189"/><feBlend in="SourceGraphic" in2="effect1_dropShadow_420_8189" result="shape"/></filter><filter id="D" width="11.664" height="8.562" x="351.445" y="270.794" color-interpolation-filters="sRGB" filterUnits="userSpaceOnUse"><feFlood flood-opacity="0" result="BackgroundImageFix"/><feBlend in="SourceGraphic" in2="BackgroundImageFix" result="shape"/><feGaussianBlur result="effect1_foregroundBlur_420_8189" stdDeviation=".102"/></filter><filter id="E" width="4.482" height="5.912" x="351.545" y="265.953" color-interpolation-filters="sRGB" filterUnits="userSpaceOnUse"><feFlood flood-opacity="0" result="BackgroundImageFix"/><feBlend in="SourceGraphic" in2="BackgroundImageFix" result="shape"/><feGaussianBlur result="effect1_foregroundBlur_420_8189" stdDeviation=".025"/></filter><filter id="I" width="11.659" height="8.558" x="351.525" y="200.792" color-interpolation-filters="sRGB" filterUnits="userSpaceOnUse"><feFlood flood-opacity="0" result="BackgroundImageFix"/><feBlend in="SourceGraphic" in2="BackgroundImageFix" result="shape"/><feGaussianBlur result="effect1_foregroundBlur_420_8189" stdDeviation=".102"/></filter><filter id="J" width="3.807" height="3.809" x="353.974" y="272.576" color-interpolation-filters="sRGB" filterUnits="userSpaceOnUse"><feFlood flood-opacity="0" result="BackgroundImageFix"/><feBlend in="SourceGraphic" in2="BackgroundImageFix" result="shape"/><feGaussianBlur result="effect1_foregroundBlur_420_8189" stdDeviation=".102"/></filter><filter id="K" width="3.667" height="3.771" x="354.044" y="203.731" color-interpolation-filters="sRGB" filterUnits="userSpaceOnUse"><feFlood flood-opacity="0" result="BackgroundImageFix"/><feBlend in="SourceGraphic" in2="BackgroundImageFix" result="shape"/><feGaussianBlur result="effect1_foregroundBlur_420_8189" stdDeviation=".102"/></filter><filter id="L" width="8.557" height="4.784" x="355.267" y="265.697" color-interpolation-filters="sRGB" filterUnits="userSpaceOnUse"><feFlood flood-opacity="0" result="BackgroundImageFix"/><feBlend in="SourceGraphic" in2="BackgroundImageFix" result="shape"/><feGaussianBlur result="effect1_foregroundBlur_420_8189" stdDeviation=".051"/></filter><filter id="M" width="8.557" height="4.79" x="355.368" y="209.746" color-interpolation-filters="sRGB" filterUnits="userSpaceOnUse"><feFlood flood-opacity="0" result="BackgroundImageFix"/><feBlend in="SourceGraphic" in2="BackgroundImageFix" result="shape"/><feGaussianBlur result="effect1_foregroundBlur_420_8189" stdDeviation=".051"/></filter><filter id="N" width="41.464" height="106.407" x="324.194" y="186.812" color-interpolation-filters="sRGB" filterUnits="userSpaceOnUse"><feFlood flood-opacity="0" result="BackgroundImageFix"/><feBlend in="SourceGraphic" in2="BackgroundImageFix" result="shape"/><feGaussianBlur result="effect1_foregroundBlur_420_8189" stdDeviation="2.038"/></filter><filter id="P" width="41.464" height="106.407" x="324.194" y="186.812" color-interpolation-filters="sRGB" filterUnits="userSpaceOnUse"><feFlood flood-opacity="0" result="BackgroundImageFix"/><feBlend in="SourceGraphic" in2="BackgroundImageFix" result="shape"/><feGaussianBlur result="effect1_foregroundBlur_420_8189" stdDeviation="2.038"/></filter><linearGradient id="a" x1="382.029" x2="99.058" y1="99.876" y2="382.847" gradientUnits="userSpaceOnUse"><stop stop-color="#E44857"/><stop offset=".47" stop-color="#C711E1"/><stop offset="1" stop-color="#7F52FF"/></linearGradient><linearGradient id="d" x1="352.297" x2="365.852" y1="287.438" y2="268.231" gradientUnits="userSpaceOnUse"><stop stop-color="#A8F0B9"/><stop offset="1" stop-color="#ADEEBC" stop-opacity="0"/></linearGradient><linearGradient id="f" x1="352.297" x2="365.852" y1="192.48" y2="211.687" gradientUnits="userSpaceOnUse"><stop stop-color="#A8F0B9"/><stop offset="1" stop-color="#ADEEBC" stop-opacity="0"/></linearGradient><linearGradient id="F" x1="350.177" x2="355.925" y1="271.403" y2="271.145" gradientUnits="userSpaceOnUse"><stop stop-color="#E2DDE2"/><stop offset="1" stop-color="#E2DDE2" stop-opacity="0"/></linearGradient><linearGradient id="H" x1="352.52" x2="357.254" y1="208.818" y2="208.818" gradientUnits="userSpaceOnUse"><stop stop-color="#373637"/><stop offset="1" stop-color="#373637" stop-opacity="0"/></linearGradient><linearGradient id="O" x1="327.369" x2="350.869" y1="240.016" y2="240.016" gradientUnits="userSpaceOnUse"><stop stop-color="#A8F0B9"/><stop offset="1" stop-color="#ADEEBC" stop-opacity="0"/></linearGradient><linearGradient id="Q" x1="327.369" x2="350.869" y1="240.016" y2="240.016" gradientUnits="userSpaceOnUse"><stop stop-color="#A8F0B9"/><stop offset="1" stop-color="#ADEEBC" stop-opacity="0"/></linearGradient><radialGradient id="l" cx="0" cy="0" r="1" gradientTransform="matrix(.04298 4.75603 -3.44489 .03113 6.427 7.566)" gradientUnits="userSpaceOnUse"><stop stop-color="#fff"/><stop offset=".948" stop-color="#fff" stop-opacity="0"/></radialGradient><radialGradient id="m" cx="0" cy="0" r="1" gradientTransform="matrix(.04298 4.75603 -3.44489 .03113 6.427 7.566)" gradientUnits="userSpaceOnUse"><stop stop-color="#fff"/><stop offset=".948" stop-color="#fff" stop-opacity="0"/></radialGradient><radialGradient id="w" cx="0" cy="0" r="1" gradientTransform="rotate(91.532 .916 2.997) scale(1.85511 3.37897)" gradientUnits="userSpaceOnUse"><stop stop-color="#93E19F"/><stop offset="1" stop-color="#93E19F" stop-opacity="0"/></radialGradient><radialGradient id="x" cx="0" cy="0" r="1" gradientTransform="matrix(-.04957 1.85369 -3.37637 -.0903 3.935 2.16)" gradientUnits="userSpaceOnUse"><stop stop-color="#93E19F"/><stop offset="1" stop-color="#93E19F" stop-opacity="0"/></radialGradient></defs></svg>